<svg width="9" height="9" viewBox="0 0 18 27" fill="none" xmlns="http://www.w3.org/2000/svg">
<path d="M16.25 8.75V6.25C16.25 2.75 13.5 0 10 0C6.5 0 3.75 2.75 3.75 6.25V8.75C1.625 8.75 0 10.375 0 12.5V21.25C0 23.375 1.625 25 3.75 25H16.25C18.375 25 20 23.375 20 21.25V12.5C20 10.375 18.375 8.75 16.25 8.75ZM6.25 6.25C6.25 4.125 7.875 2.5 10 2.5C12.125 2.5 13.75 4.125 13.75 6.25V8.75H6.25V6.25ZM17.5 21C17.5 22 17 22.7304 16 22.7304C15 22.7304 10.5 22.7304 10.5 22.7304C10.5 22.7304 10.75 22.7304 10 22.7304C9.25 22.7304 8.25 22.7304 7 22.7304C7 22.7304 6 22.7304 4.5 22.7304C3 22.7304 2.5 22 2.5 21C2.5 19.7179 2.5 18.5745 2.5 16.5C2.5 16.3235 2.5 13.173 2.5 13C2.5 12 3 11.214 4.5 11.214C6 11.214 14 11.214 15.5 11.214C17 11.214 17.5 12 17.5 13C17.5 14 17.5 20 17.5 21Z" fill="white"/>
</svg>
