<svg width="32" height="27" viewBox="0 0 32 27" fill="none" xmlns="http://www.w3.org/2000/svg">
<path d="M4.76393 16.1107L4.7626 16.1094C2.19674 13.515 0.9 10.9521 0.9 8.42188C0.9 5.91947 1.61497 3.95029 3.05586 2.52779C4.49648 1.10558 6.483 0.4 9.00223 0.4C9.70606 0.4 10.4228 0.523417 11.1519 0.76917C11.8799 1.01452 12.5574 1.3456 13.1843 1.76243C13.8056 2.17558 14.3411 2.56392 14.7906 2.92746C15.2136 3.26965 15.6168 3.632 16 4.01451C16.3832 3.632 16.7864 3.26965 17.2094 2.92746C17.6589 2.56392 18.1944 2.17557 18.8157 1.76243C19.4426 1.3456 20.1201 1.01452 20.8481 0.76917C21.5772 0.523417 22.2939 0.4 22.9978 0.4C25.517 0.4 27.5035 1.10558 28.9441 2.52779C30.385 3.95029 31.1 5.91947 31.1 8.42188C31.1 9.18966 30.9668 9.97881 30.7016 10.7889C30.4377 11.5952 30.1364 12.285 29.7969 12.857C29.4597 13.4253 29.0777 13.9791 28.651 14.5184C28.2269 15.0544 27.9145 15.4274 27.7155 15.6344C27.5215 15.8361 27.3658 15.9855 27.2496 16.08L16.8077 26.2656C16.8075 26.2659 16.8073 26.2661 16.8071 26.2663C16.5872 26.4883 16.3161 26.6 16 26.6C15.6839 26.6 15.4129 26.4883 15.193 26.2663C15.1928 26.2661 15.1925 26.2659 15.1923 26.2656L4.76394 16.1107L4.76393 16.1107Z" fill="#C20505" stroke="#C20505" stroke-width="0.2"/>
</svg>
