<svg width="17" height="17" viewBox="0 0 17 17" fill="none" xmlns="http://www.w3.org/2000/svg">
<path d="M16.1 6.45834L14.525 5.93334L15.2667 4.45001C15.3419 4.29475 15.367 4.11998 15.3386 3.94982C15.3103 3.77966 15.2298 3.62249 15.1083 3.50001L13.3333 1.72501C13.2102 1.60175 13.0515 1.52018 12.8796 1.49178C12.7077 1.46338 12.5312 1.48957 12.375 1.56667L10.8917 2.30834L10.3667 0.733341C10.3112 0.569168 10.206 0.426363 10.0656 0.324798C9.92518 0.223233 9.75661 0.167961 9.58333 0.166675H7.08333C6.90863 0.166224 6.73821 0.22069 6.59614 0.322376C6.45408 0.424062 6.34757 0.567824 6.29167 0.733341L5.76667 2.30834L4.28334 1.56667C4.12807 1.49149 3.95331 1.46634 3.78315 1.4947C3.61299 1.52306 3.45582 1.60353 3.33334 1.72501L1.55834 3.50001C1.43507 3.62315 1.35351 3.78182 1.32511 3.95372C1.29671 4.12562 1.3229 4.3021 1.4 4.45834L2.14167 5.94167L0.566669 6.46667C0.402496 6.52212 0.259691 6.62736 0.158126 6.76776C0.0565615 6.90816 0.00128973 7.07673 2.77795e-06 7.25001V9.75001C-0.00044819 9.92471 0.0540186 10.0951 0.155704 10.2372C0.25739 10.3793 0.401152 10.4858 0.566669 10.5417L2.14167 11.0667L1.4 12.55C1.32482 12.7053 1.29967 12.88 1.32803 13.0502C1.35639 13.2204 1.43686 13.3775 1.55834 13.5L3.33334 15.275C3.45647 15.3983 3.61515 15.4798 3.78705 15.5082C3.95895 15.5366 4.13543 15.5104 4.29167 15.4333L5.775 14.6917L6.3 16.2667C6.35591 16.4322 6.46242 16.576 6.60448 16.6776C6.74654 16.7793 6.91697 16.8338 7.09167 16.8333H9.59167C9.76637 16.8338 9.9368 16.7793 10.0789 16.6776C10.2209 16.576 10.3274 16.4322 10.3833 16.2667L10.9083 14.6917L12.3917 15.4333C12.5459 15.5066 12.719 15.5307 12.8874 15.5024C13.0559 15.4741 13.2115 15.3947 13.3333 15.275L15.1083 13.5C15.2316 13.3769 15.3132 13.2182 15.3416 13.0463C15.37 12.8744 15.3438 12.6979 15.2667 12.5417L14.525 11.0583L16.1 10.5333C16.2642 10.4779 16.407 10.3726 16.5085 10.2323C16.6101 10.0919 16.6654 9.92328 16.6667 9.75001V7.25001C16.6671 7.0753 16.6127 6.90488 16.511 6.76282C16.4093 6.62076 16.2655 6.51425 16.1 6.45834ZM15 9.15001L14 9.48334C13.77 9.55793 13.5591 9.68165 13.3817 9.84592C13.2044 10.0102 13.0649 10.2111 12.9729 10.4347C12.8809 10.6582 12.8387 10.8991 12.8491 11.1407C12.8596 11.3822 12.9224 11.6185 13.0333 11.8333L13.5083 12.7833L12.5917 13.7L11.6667 13.2C11.453 13.0935 11.2189 13.0342 10.9803 13.0261C10.7416 13.0179 10.5041 13.0612 10.2836 13.1528C10.0631 13.2445 9.86494 13.3825 9.70243 13.5574C9.53992 13.7323 9.41689 13.9401 9.34167 14.1667L9.00834 15.1667H7.68334L7.35 14.1667C7.27541 13.9367 7.15169 13.7257 6.98742 13.5484C6.82315 13.371 6.62226 13.2315 6.39869 13.1396C6.17511 13.0476 5.93421 13.0054 5.69269 13.0158C5.45117 13.0262 5.21481 13.0891 5 13.2L4.05 13.675L3.13334 12.7583L3.63334 11.8333C3.74425 11.6185 3.8071 11.3822 3.81754 11.1407C3.82798 10.8991 3.78575 10.6582 3.69378 10.4347C3.60182 10.2111 3.46232 10.0102 3.28496 9.84592C3.1076 9.68165 2.89662 9.55793 2.66667 9.48334L1.66667 9.15001V7.85001L2.66667 7.51667C2.89662 7.44208 3.1076 7.31836 3.28496 7.15409C3.46232 6.98982 3.60182 6.78893 3.69378 6.56536C3.78575 6.34179 3.82798 6.10088 3.81754 5.85936C3.8071 5.61784 3.74425 5.38148 3.63334 5.16667L3.15834 4.24167L4.075 3.32501L5 3.80001C5.21481 3.91092 5.45117 3.97377 5.69269 3.98421C5.93421 3.99465 6.17511 3.95242 6.39869 3.86046C6.62226 3.76849 6.82315 3.62899 6.98742 3.45163C7.15169 3.27427 7.27541 3.06329 7.35 2.83334L7.68334 1.83334H8.98333L9.31667 2.83334C9.39126 3.06329 9.51498 3.27427 9.67925 3.45163C9.84352 3.62899 10.0444 3.76849 10.268 3.86046C10.4916 3.95242 10.7325 3.99465 10.974 3.98421C11.2155 3.97377 11.4519 3.91092 11.6667 3.80001L12.6167 3.32501L13.5333 4.24167L13.0333 5.16667C12.9269 5.38038 12.8676 5.61446 12.8594 5.85308C12.8513 6.0917 12.8945 6.32928 12.9862 6.54974C13.0778 6.7702 13.2158 6.9684 13.3907 7.13091C13.5656 7.29342 13.7734 7.41645 14 7.49167L15 7.82501V9.15001ZM8.33333 5.16667C7.67406 5.16667 7.0296 5.36217 6.48144 5.72844C5.93327 6.09471 5.50603 6.61531 5.25374 7.2244C5.00144 7.83348 4.93543 8.5037 5.06405 9.15031C5.19267 9.79691 5.51014 10.3909 5.97631 10.857C6.44249 11.3232 7.03643 11.6407 7.68303 11.7693C8.32964 11.8979 8.99986 11.8319 9.60895 11.5796C10.218 11.3273 10.7386 10.9001 11.1049 10.3519C11.4712 9.80374 11.6667 9.15928 11.6667 8.50001C11.6667 7.61595 11.3155 6.76811 10.6904 6.14298C10.0652 5.51786 9.21739 5.16667 8.33333 5.16667ZM8.33333 10.1667C8.0037 10.1667 7.68147 10.0689 7.40738 9.88579C7.1333 9.70265 6.91968 9.44236 6.79354 9.13781C6.66739 8.83327 6.63438 8.49816 6.69869 8.17486C6.763 7.85155 6.92174 7.55458 7.15482 7.3215C7.38791 7.08841 7.68488 6.92967 8.00818 6.86536C8.33149 6.80106 8.6666 6.83406 8.97114 6.96021C9.27568 7.08635 9.53598 7.29997 9.71912 7.57406C9.90225 7.84814 10 8.17037 10 8.50001C10 8.94203 9.82441 9.36596 9.51185 9.67852C9.19929 9.99108 8.77536 10.1667 8.33333 10.1667Z" fill="#F9F6F9"/>
</svg>
