<svg width="20" height="20" viewBox="0 0 20 20" fill="none" xmlns="http://www.w3.org/2000/svg">
<g clip-path="url(#clip0_7_4)">
<path d="M15.5569 19.2678C15.3966 19.2684 15.2385 19.2302 15.0959 19.1562L9.98497 16.4492L4.87405 19.1562C4.70808 19.2445 4.52097 19.2839 4.33397 19.27C4.14697 19.256 3.96759 19.1893 3.81621 19.0773C3.66484 18.9654 3.54755 18.8127 3.47768 18.6367C3.4078 18.4606 3.38814 18.2683 3.42094 18.0815L4.42308 12.3734L0.294259 8.31792C0.165441 8.18787 0.0740596 8.02478 0.0299215 7.84616C-0.0142167 7.66754 -0.00944543 7.48014 0.0437232 7.30405C0.101807 7.12386 0.208652 6.96375 0.352133 6.84189C0.495613 6.72002 0.669984 6.64129 0.855458 6.61462L6.56767 5.7731L9.08304 0.571936C9.1651 0.400519 9.29323 0.255955 9.45274 0.154802C9.61226 0.0536493 9.79671 0 9.98497 0C10.1732 0 10.3577 0.0536493 10.5172 0.154802C10.6767 0.255955 10.8048 0.400519 10.8869 0.571936L13.4323 5.76296L19.1445 6.60448C19.33 6.63115 19.5044 6.70989 19.6479 6.83175C19.7913 6.95361 19.8982 7.11372 19.9563 7.29391C20.0094 7.47 20.0142 7.6574 19.9701 7.83602C19.9259 8.01464 19.8346 8.17773 19.7057 8.30779L15.5769 12.3633L16.5791 18.0714C16.6148 18.2615 16.5961 18.4579 16.5251 18.6376C16.454 18.8172 16.3337 18.9726 16.1782 19.0853C15.9967 19.2139 15.7782 19.2781 15.5569 19.2678Z" fill="#FFD600"/>
</g>
<defs>
<clipPath id="clip0_7_4">
<rect width="20" height="20" fill="white"/>
</clipPath>
</defs>
</svg>
