<svg width="40" height="41" viewBox="0 0 40 41" fill="none" xmlns="http://www.w3.org/2000/svg">
<path d="M19.5 3C14.8603 3.00519 10.4121 4.8506 7.13136 8.13136C3.8506 11.4121 2.00519 15.8603 2 20.5C2.00777 25.1389 3.85401 29.5856 7.13422 32.8658C10.4144 36.146 14.8611 37.9922 19.5 38C24.1413 38 28.5925 36.1563 31.8744 32.8744C35.1563 29.5925 37 25.1413 37 20.5C37 15.8587 35.1563 11.4075 31.8744 8.12563C28.5925 4.84374 24.1413 3 19.5 3ZM30.1442 30.5982C29.1614 28.6158 27.6441 26.9475 25.7636 25.7816C23.883 24.6156 21.7141 23.9984 19.5014 23.9996C17.2888 24.0008 15.1205 24.6202 13.2412 25.7882C11.3619 26.9561 9.84634 28.626 8.8656 30.6094C6.24888 27.8955 4.79082 24.2699 4.8 20.5C4.8 16.6013 6.34875 12.8623 9.10553 10.1055C11.8623 7.34875 15.6013 5.8 19.5 5.8C23.3987 5.8 27.1377 7.34875 29.8945 10.1055C32.6513 12.8623 34.2 16.6013 34.2 20.5C34.2088 24.2647 32.7545 27.8855 30.1442 30.5982ZM19.5 10C18.254 10 17.0359 10.3695 15.9999 11.0617C14.9639 11.754 14.1564 12.7379 13.6796 13.8891C13.2027 15.0403 13.078 16.307 13.3211 17.5291C13.5641 18.7511 14.1642 19.8737 15.0452 20.7548C15.9263 21.6358 17.0489 22.2359 18.2709 22.4789C19.493 22.722 20.7597 22.5973 21.9109 22.1204C23.0621 21.6436 24.046 20.8361 24.7383 19.8001C25.4305 18.7641 25.8 17.546 25.8 16.3C25.8 15.4727 25.637 14.6534 25.3204 13.8891C25.0038 13.1247 24.5398 12.4302 23.9548 11.8452C23.3698 11.2602 22.6753 10.7962 21.9109 10.4796C21.1466 10.163 20.3273 10 19.5 10Z" fill="#F9F6F9"/>
</svg>
