<svg width="32" height="27" viewBox="0 0 32 27" fill="none" xmlns="http://www.w3.org/2000/svg">
<path d="M4.76394 16.1107L4.76393 16.1107L4.7626 16.1094C2.19674 13.515 0.9 10.9521 0.9 8.42188C0.9 5.91947 1.61496 3.95029 3.05586 2.52779C4.49648 1.10558 6.483 0.4 9.00223 0.4C9.70607 0.4 10.4228 0.523417 11.1519 0.76917C11.8799 1.01452 12.5574 1.3456 13.1843 1.76243C13.8056 2.17558 14.3411 2.56392 14.7906 2.92746C15.2136 3.26965 15.6168 3.632 16 4.01451C16.3832 3.632 16.7864 3.26965 17.2094 2.92746C17.6589 2.56392 18.1944 2.17558 18.8157 1.76243C19.4426 1.3456 20.1201 1.01452 20.8481 0.76917C21.5772 0.523417 22.2939 0.4 22.9978 0.4C25.517 0.4 27.5035 1.10558 28.9441 2.52779C30.385 3.95029 31.1 5.91947 31.1 8.42188C31.1 9.18966 30.9668 9.97881 30.7016 10.7889C30.4377 11.5952 30.1364 12.285 29.7969 12.857C29.4597 13.4253 29.0777 13.9791 28.651 14.5184C28.2269 15.0544 27.9145 15.4274 27.7155 15.6344C27.5215 15.8361 27.3658 15.9855 27.2496 16.08L16.8077 26.2656C16.8075 26.2659 16.8073 26.2661 16.8071 26.2663C16.5872 26.4883 16.3161 26.6 16 26.6C15.6839 26.6 15.4129 26.4883 15.193 26.2663C15.1928 26.2661 15.1925 26.2659 15.1923 26.2656L4.76394 16.1107ZM3.59738 6.03374C3.36174 6.72083 3.24286 7.51635 3.24286 8.42188C3.24286 10.2795 4.27109 12.264 6.36063 14.3769C6.36085 14.3772 6.36106 14.3774 6.36128 14.3776L16 23.7705L25.6555 14.3607C25.6557 14.3605 25.6559 14.3602 25.6561 14.36C27.7344 12.2585 28.7571 10.2796 28.7571 8.42188C28.7571 7.51635 28.6383 6.72083 28.4026 6.03374C28.1657 5.34294 27.8647 4.80028 27.5024 4.4012C27.1377 3.99942 26.6935 3.67118 26.1685 3.41682C25.6399 3.16074 25.1242 2.98904 24.6211 2.90057C24.114 2.81141 23.573 2.76667 22.9978 2.76667C22.434 2.76667 21.8225 2.90646 21.1622 3.19018C20.5001 3.47472 19.8908 3.83161 19.3339 4.26084C18.7722 4.69384 18.2921 5.09796 17.8933 5.47322C17.4938 5.84913 17.162 6.1931 16.8973 6.50522C16.6758 6.77849 16.3729 6.9138 16 6.9138C15.6271 6.9138 15.3243 6.77849 15.1027 6.50523C14.838 6.19311 14.5062 5.84914 14.1067 5.47322C13.7079 5.09796 13.2278 4.69384 12.6661 4.26084C12.1092 3.83161 11.4999 3.47472 10.8377 3.19018C10.1775 2.90646 9.56602 2.76667 9.00223 2.76667C8.42704 2.76667 7.886 2.81141 7.37893 2.90057C6.87583 2.98904 6.36009 3.16074 5.83155 3.41682C5.30653 3.67118 4.86229 3.99942 4.49759 4.4012C4.13533 4.80028 3.8343 5.34294 3.59738 6.03374Z" fill="white" stroke="#F9F6F9" stroke-width="0.2"></path>
</svg>
