<svg width="40" height="41" viewBox="0 0 40 41" fill="none" xmlns="http://www.w3.org/2000/svg">
<path d="M7.77318 26.9849C9.99002 29.2042 12.9422 30.5365 16.0734 30.7308C19.2047 30.925 22.299 29.9679 24.7733 28.0396L33.2869 36.5507C33.5889 36.8423 33.9932 37.0036 34.413 36.9999C34.8328 36.9963 35.2343 36.828 35.5311 36.5312C35.8279 36.2345 35.9963 35.8331 35.9999 35.4135C36.0036 34.9938 35.8422 34.5896 35.5506 34.2877L27.037 25.7766C29.0514 23.1921 30.0038 19.9368 29.6999 16.6745C29.396 13.4122 27.8587 10.3886 25.4016 8.22043C22.9445 6.05226 19.7525 4.90279 16.4768 5.00645C13.2011 5.1101 10.0882 6.45907 7.77318 8.77825C6.57698 9.97349 5.62806 11.3926 4.98064 12.9546C4.33323 14.5166 4 16.1908 4 17.8816C4 19.5723 4.33323 21.2465 4.98064 22.8085C5.62806 24.3705 6.57698 25.7896 7.77318 26.9849ZM10.0369 11.0445C11.6195 9.46235 13.7019 8.47775 15.9292 8.25842C18.1566 8.03909 20.3911 8.5986 22.2521 9.84162C24.1131 11.0846 25.4854 12.9343 26.1352 15.0754C26.785 17.2165 26.6721 19.5166 25.8157 21.5838C24.9594 23.651 23.4125 25.3575 21.4388 26.4124C19.465 27.4673 17.1864 27.8054 14.9912 27.3692C12.7961 26.9329 10.8201 25.7492 9.40002 24.0198C7.97994 22.2904 7.20359 20.1223 7.20326 17.8848C7.19886 16.6133 7.44708 15.3537 7.93351 14.1789C8.41993 13.0041 9.13488 11.9376 10.0369 11.0413V11.0445Z" fill="#F9F6F9"></path>
</svg>
